<?xml version="1.0" standalone="no"?><!DOCTYPE svg PUBLIC "-//W3C//DTD SVG 1.1//EN" "http://www.w3.org/Graphics/SVG/1.1/DTD/svg11.dtd"><svg t="1589287911989" class="icon" viewBox="0 0 1024 1024" version="1.1" xmlns="http://www.w3.org/2000/svg" p-id="563" xmlns:xlink="http://www.w3.org/1999/xlink" width="200" height="200"><defs><style type="text/css"></style></defs><path d="M844.71 929.28H179.29a81.45 81.45 0 0 1-81.45-81.44V370.08a81.45 81.45 0 0 1 81.45-81.44h665.42a81.45 81.45 0 0 1 81.45 81.44v477.76a81.45 81.45 0 0 1-81.45 81.44z m6.15-81.47v-477.7a6.11 6.11 0 0 0-6.11-6.1h-665.5a6.11 6.11 0 0 0-6.11 6.1v477.7a6.11 6.11 0 0 0 6.11 6.1h665.5a6.11 6.11 0 0 0 6.11-6.1z"></path><path d="M173.14 477.06h677.71v75.37H173.14zM399.05 627.8h225.9v75.37h-225.9zM655.38 364H368.62a82.52 82.52 0 0 1-82.52-82.53v-98.73a82.52 82.52 0 0 1 82.52-82.53h286.76a82.52 82.52 0 0 1 82.52 82.53v98.74A82.52 82.52 0 0 1 655.38 364z m7.22-82.55v-98.7a7.17 7.17 0 0 0-7.17-7.17H368.57a7.17 7.17 0 0 0-7.17 7.17v98.71a7.18 7.18 0 0 0 7.17 7.18h286.86a7.18 7.18 0 0 0 7.17-7.18z"></path></svg>
