<?xml version="1.0" standalone="no"?><!DOCTYPE svg PUBLIC "-//W3C//DTD SVG 1.1//EN" "http://www.w3.org/Graphics/SVG/1.1/DTD/svg11.dtd"><svg t="1591671533080" class="icon" viewBox="0 0 1194 1024" version="1.1" xmlns="http://www.w3.org/2000/svg" p-id="2952" xmlns:xlink="http://www.w3.org/1999/xlink" width="116.6015625" height="100"><defs><style type="text/css"></style></defs><path d="M983.381333 1024H56.490667a42.666667 42.666667 0 0 1-40.618667-55.978667l168.618667-511.146666a42.837333 42.837333 0 0 1 40.618666-29.354667h926.805334a42.666667 42.666667 0 0 1 40.618666 55.978667L1024 994.645333a42.922667 42.922667 0 0 1-40.533333 29.354667z m-867.84-85.333333h836.778667l140.544-425.813334H256.085333L115.541333 938.666667z m867.84 84.48H42.666667a42.666667 42.666667 0 0 1-42.752-42.666667V42.666667A42.666667 42.666667 0 0 1 42.752 0h410.794667c32.597333 0 59.050667 26.453333 59.050666 58.88 0 38.4 31.232 69.632 69.717334 69.632h315.733333c70.570667 0 128 57.344 128 127.829333v107.776h-85.418667V256.341333a42.666667 42.666667 0 0 0-42.666666-42.496H582.314667A155.477333 155.477333 0 0 1 429.312 85.333333h-343.893333v852.565334h897.962666v85.248z"></path></svg>
