<?xml version="1.0" standalone="no"?><!DOCTYPE svg PUBLIC "-//W3C//DTD SVG 1.1//EN" "http://www.w3.org/Graphics/SVG/1.1/DTD/svg11.dtd"><svg t="1586506984832" class="icon" viewBox="0 0 1024 1024" version="1.1" xmlns="http://www.w3.org/2000/svg" p-id="11850" xmlns:xlink="http://www.w3.org/1999/xlink" width="100" height="100"><defs><style type="text/css"></style></defs><path d="M919.272727 309.061818a46.545455 46.545455 0 0 1-46.545454-46.545454C872.727273 165.701818 785.687273 93.090909 670.254545 93.090909H366.778182C262.516364 93.090909 151.272727 147.549091 151.272727 249.018182a46.545455 46.545455 0 0 1-93.090909 0C58.181818 107.054545 190.836364 0 366.778182 0h303.476363c168.494545 0 295.563636 112.64 295.563637 262.516364a46.545455 46.545455 0 0 1-46.545455 46.545454zM670.254545 1024H366.778182C202.472727 1024 58.181818 893.207273 58.181818 744.727273v-186.181818a46.545455 46.545455 0 0 1 93.090909 0v186.181818c0 97.745455 102.865455 186.181818 215.505455 186.181818h303.476363a205.730909 205.730909 0 0 0 202.472728-198.283636 46.545455 46.545455 0 0 1 93.090909 0A297.425455 297.425455 0 0 1 670.254545 1024z" p-id="11851"></path><path d="M104.727273 395.636364m-46.545455 0a46.545455 46.545455 0 1 0 93.090909 0 46.545455 46.545455 0 1 0-93.090909 0Z" p-id="11852"></path><path d="M802.909091 465.454545a46.545455 46.545455 0 0 1 46.545454 46.545455 46.545455 46.545455 0 0 1-46.545454 46.545455H290.909091a46.545455 46.545455 0 0 1-46.545455-46.545455 46.545455 46.545455 0 0 1 46.545455-46.545455z" p-id="11853"></path><path d="M686.545455 784.756364a46.545455 46.545455 0 0 1-33.047273-13.498182 46.545455 46.545455 0 0 1 0-65.629091L849.454545 512l-195.956363-195.956364a46.545455 46.545455 0 0 1 0-65.629091 46.545455 46.545455 0 0 1 66.094545 0l227.607273 227.607273a46.545455 46.545455 0 0 1 0 65.629091l-227.607273 227.607273a46.545455 46.545455 0 0 1-33.047272 13.498182z" p-id="11854"></path></svg>