<?xml version="1.0" standalone="no"?><!DOCTYPE svg PUBLIC "-//W3C//DTD SVG 1.1//EN" "http://www.w3.org/Graphics/SVG/1.1/DTD/svg11.dtd"><svg t="1589015639569" class="icon" viewBox="0 0 1024 1024" version="1.1" xmlns="http://www.w3.org/2000/svg" p-id="9356" xmlns:xlink="http://www.w3.org/1999/xlink" width="200" height="200"><defs><style type="text/css"></style></defs><path d="M418.4 497.7H139.7c-42.1 0-76.3-34.2-76.3-76.3V142.6c0-42.1 34.2-76.3 76.3-76.3h278.8c42.1 0 76.3 34.2 76.3 76.3v278.8c-0.1 42.1-34.3 76.3-76.4 76.3zM139.7 112.8c-16.5 0-29.9 13.4-29.9 29.9v278.8c0 16.5 13.4 29.9 29.9 29.9h278.8c16.5 0 29.9-13.4 29.9-29.9V142.6c0-16.5-13.4-29.9-29.9-29.9H139.7zM883 497.7H604.3c-42.1 0-76.3-34.2-76.3-76.3V142.6c0-42.1 34.2-76.3 76.3-76.3H883c42.1 0 76.3 34.2 76.3 76.3v278.8c0 42.1-34.2 76.3-76.3 76.3zM604.3 112.8c-16.5 0-29.9 13.4-29.9 29.9v278.8c0 16.5 13.4 29.9 29.9 29.9H883c16.5 0 29.9-13.4 29.9-29.9V142.6c0-16.5-13.4-29.9-29.9-29.9H604.3zM418.4 962.3H139.7c-42.1 0-76.3-34.2-76.3-76.3V607.2c0-42.1 34.2-76.3 76.3-76.3h278.8c42.1 0 76.3 34.2 76.3 76.3V886c-0.1 42.1-34.3 76.3-76.4 76.3zM139.7 577.4c-16.5 0-29.9 13.4-29.9 29.9V886c0 16.5 13.4 29.9 29.9 29.9h278.8c16.5 0 29.9-13.4 29.9-29.9V607.2c0-16.5-13.4-29.9-29.9-29.9H139.7z"></path><path d="M928.1 939.1H559.2c-4.4 0-8-3.6-8-8v-369c0-4.4 3.6-8 8-8h368.9c4.4 0 8 3.6 8 8V931c0 4.5-3.6 8.1-8 8.1z"></path><path d="M883 962.3H604.3c-42.1 0-76.3-34.2-76.3-76.3V607.2c0-42.1 34.2-76.3 76.3-76.3H883c42.1 0 76.3 34.2 76.3 76.3V886c0 42.1-34.2 76.3-76.3 76.3zM604.3 577.4c-16.5 0-29.9 13.4-29.9 29.9V886c0 16.5 13.4 29.9 29.9 29.9H883c16.5 0 29.9-13.4 29.9-29.9V607.2c0-16.5-13.4-29.9-29.9-29.9H604.3z"></path></svg>
