<?xml version="1.0" standalone="no"?><!DOCTYPE svg PUBLIC "-//W3C//DTD SVG 1.1//EN" "http://www.w3.org/Graphics/SVG/1.1/DTD/svg11.dtd"><svg t="1588814550619" class="icon" viewBox="0 0 1024 1024" version="1.1" xmlns="http://www.w3.org/2000/svg" p-id="2139" xmlns:xlink="http://www.w3.org/1999/xlink" width="200" height="200"><defs><style type="text/css"></style></defs><path d="M802.6 708.739L662.821 851.571l58.689 51.164 137.431-140.452zM656 912h56.3L656 863zM870.308 751.568l33.78-32.087c5.674-5.271 5.674-16.123 0-21.461l-33.78-32.014c-5.649-5.293-16.92-5.293-22.564 0l-33.829 32.016zM522.666 641.724c0-34.741-26.272-62.9-58.67-62.9s-58.664 28.163-58.664 62.9c0 24.915 13.519 46.446 33.113 56.626L418.4 778.859h91.333l-20.066-80.575c19.542-10.212 32.999-31.694 32.999-56.56z" p-id="2140"></path><path d="M635 854.847H208c-17.665-0.018-31.981-12.8-32-28.577V531.413c0.019-15.775 14.335-28.559 32-28.576h512c17.664 0.017 31.98 12.8 32 28.576v206.653l64-64V531.413c-0.06-47.325-43.006-85.677-96-85.73H272V340.637c0-94.543 86.131-171.459 192-171.459s192 76.916 192 171.459c0 15.782 14.326 28.577 32 28.577s32-12.8 32-28.577c0.018-124.875-112.176-226.657-251.994-228.609s-255.519 96.651-259.87 221.465H208v112.19c-52.995 0.053-95.94 38.4-96 85.729V826.27c0.058 47.33 43 85.677 96 85.73h427z" p-id="2141"></path></svg>