<?xml version="1.0" standalone="no"?><!DOCTYPE svg PUBLIC "-//W3C//DTD SVG 1.1//EN" "http://www.w3.org/Graphics/SVG/1.1/DTD/svg11.dtd"><svg t="1591671326318" class="icon" viewBox="0 0 1024 1024" version="1.1" xmlns="http://www.w3.org/2000/svg" p-id="2600" xmlns:xlink="http://www.w3.org/1999/xlink" width="100" height="100"><defs><style type="text/css"></style></defs><path d="M292.571429 0h438.857142a292.571429 292.571429 0 0 1 292.571429 292.571429v438.857142a292.571429 292.571429 0 0 1-292.571429 292.571429H292.571429a292.571429 292.571429 0 0 1-292.571429-292.571429V292.571429a292.571429 292.571429 0 0 1 292.571429-292.571429z m0 73.142857a219.428571 219.428571 0 0 0-219.428572 219.428572v438.857142a219.428571 219.428571 0 0 0 219.428572 219.428572h438.857142a219.428571 219.428571 0 0 0 219.428572-219.428572V292.571429a219.428571 219.428571 0 0 0-219.428572-219.428572H292.571429z" p-id="2601"></path><path d="M749.714286 691.712c21.211429 3.145143 35.547429 8.338286 43.154285 15.506286 7.826286 7.314286 11.702857 18.432 11.702858 33.499428v21.430857c0 15.579429-2.779429 27.209143-8.411429 34.742858-5.558857 7.460571-14.482286 12.653714-26.770286 15.36-12.214857 2.779429-37.302857 4.169143-75.190857 4.169142H585.142857V585.142857h94.061714c29.696 0 52.150857 1.462857 67.510858 4.388572 15.286857 2.925714 27.648 8.996571 37.010285 17.993142 9.435429 8.996571 14.116571 23.478857 14.116572 43.446858 0 13.531429-3.291429 22.966857-9.947429 28.306285-6.582857 5.339429-19.748571 9.435429-39.277714 12.288l1.097143 0.146286z m-70.290286-66.998857v51.419428l9.362286-0.146285c9.289143 0 15.140571-1.462857 17.700571-4.388572 2.56-2.925714 3.803429-11.190857 3.803429-24.868571 0-7.314286-1.024-12.288-3.145143-15.213714a13.458286 13.458286 0 0 0-8.118857-5.485715 112.274286 112.274286 0 0 0-19.602286-1.316571z m0 87.405714v64.731429c13.238857-0.292571 21.723429-1.609143 25.380571-4.022857 3.657143-2.340571 5.485714-8.192 5.485715-17.554286v-21.577143c0-9.874286-1.609143-15.872-4.900572-17.993143-3.291429-2.048-11.922286-3.291429-25.965714-3.584zM855.771429 282.331429a73.142857 73.142857 0 0 1-56.173715 119.954285H590.116571a73.142857 73.142857 0 0 1-56.246857-119.954285l104.813715-125.805715a73.142857 73.142857 0 0 1 112.347428 0l104.813714 125.805715zM694.857143 203.337143L590.116571 329.142857h209.481143L694.857143 203.410286zM329.142857 841.142857a146.285714 146.285714 0 1 0 0-292.571428 146.285714 146.285714 0 0 0 0 292.571428z m0-73.142857a73.142857 73.142857 0 1 1 0-146.285714 73.142857 73.142857 0 0 1 0 146.285714zM230.4 271.286857l13.531429-58.368 10.24-3.072a75.337143 75.337143 0 0 0 38.912-28.525714l5.485714-7.314286h53.686857l-59.538286 256H218.624l32.621714-140.141714 4.169143-18.578286H230.4z" p-id="2602"></path></svg>