<?xml version="1.0" standalone="no"?><!DOCTYPE svg PUBLIC "-//W3C//DTD SVG 1.1//EN" "http://www.w3.org/Graphics/SVG/1.1/DTD/svg11.dtd"><svg t="1589015594621" class="icon" viewBox="0 0 1024 1024" version="1.1" xmlns="http://www.w3.org/2000/svg" p-id="7375" xmlns:xlink="http://www.w3.org/1999/xlink" width="200" height="200"><defs><style type="text/css"></style></defs><path d="M397.414 479.078a241.613 241.613 0 1 1 241.767-5.478 396.749 396.749 0 0 1 96.051 42.65 25.6 25.6 0 1 1-26.778 43.622A347.75 347.75 0 0 0 179.2 856.576a25.6 25.6 0 1 1-51.2 0c0-175.002 112.64-323.686 269.414-377.498z m116.224-21.504a190.413 190.413 0 1 0 0-380.774 190.413 190.413 0 0 0 0 380.826zM665.6 863.078l104.858 56.116 99.942-55.655V665.6H665.6v197.427z m256-248.678v279.296l-150.63 83.763-156.57-83.763V614.4h307.2zM768 716.8l15.82 33.69 35.38 5.427-25.6 26.214 6.042 37.069L768 801.69l-31.642 17.51 6.042-37.069-25.6-26.214 35.38-5.427L768 716.8z" p-id="7376"></path></svg>