<?xml version="1.0" standalone="no"?><!DOCTYPE svg PUBLIC "-//W3C//DTD SVG 1.1//EN" "http://www.w3.org/Graphics/SVG/1.1/DTD/svg11.dtd"><svg t="1586513006975" class="icon" viewBox="0 0 1024 1024" version="1.1" xmlns="http://www.w3.org/2000/svg" p-id="9138" xmlns:xlink="http://www.w3.org/1999/xlink" width="100" height="100"><defs><style type="text/css"></style></defs><path d="M892.1 706.2h-9v-11.7c0-57.1-46.4-103.5-103.5-103.5s-103.5 46.4-103.5 103.5v11.7h-9c-30.9 0-56 25.1-56 56v139.1c0 30.9 25.1 56 56 56h225.1c30.9 0 56-25.1 56-56V762.2c-0.1-30.9-25.2-56-56.1-56z m-112.5-43.3c17.4 0 31.5 14.1 31.5 31.5v11.7H748v-11.7c0-17.3 14.2-31.5 31.6-31.5z m96.5 222.4H683V778.2h193.1v107.1zM496.3 864.5l-313.1-1.4c-6.2 0-10.1-3.4-11.9-5.4-1.8-2-4.7-6.4-3.9-12.7 13.4-105.4 66.8-193.8 150.3-249 43.7-28.9 93.4-47.3 147.6-54.8 57.1-7.9 116.9-3.2 177.5 14 19.1 5.4 39-5.7 44.4-24.9 5.4-19.1-5.7-39-24.9-44.4-0.8-0.2-1.6-0.4-2.4-0.7 6.5-5.2 12.7-10.8 18.6-16.8 44.4-44.4 68.8-103.4 68.8-166.2s-24-121.8-68.4-166.2c-44.4-44.4-103.4-68.8-166.2-68.8-62.8 0-121.8 24.5-166.2 68.8-44.4 44.4-68.8 103.4-68.8 166.2s24.5 121.8 68.8 166.2c7.8 7.8 16.1 15 24.7 21.5-32.9 11.4-64 26.8-93 46-49.5 32.8-90.5 75.1-121.7 125.8-31.9 52-52.2 110.6-60.4 174.2-3.2 25.1 4.5 50.3 21.2 69.3 16.6 18.9 40.6 29.8 65.7 29.9l313 1.4h0.2c19.8 0 35.9-16 36-35.8 0.1-19.9-16-36.1-35.9-36.2z m16.4-725.4c89.9 0 163.1 73.1 163.1 163.1s-73.1 163.1-163.1 163.1c-89.9 0-163.1-73.1-163.1-163.1s73.1-163.1 163.1-163.1z" p-id="9139"></path></svg>