<?xml version="1.0" standalone="no"?><!DOCTYPE svg PUBLIC "-//W3C//DTD SVG 1.1//EN" "http://www.w3.org/Graphics/SVG/1.1/DTD/svg11.dtd"><svg t="1586512935840" class="icon" viewBox="0 0 1024 1024" version="1.1" xmlns="http://www.w3.org/2000/svg" p-id="5277" xmlns:xlink="http://www.w3.org/1999/xlink" width="100" height="100"><defs><style type="text/css"></style></defs><path d="M968.189573 179.563981c0-53.383886-43.677725-111.620853-92.208531-126.180095 0 0-135.886256-53.383886-359.127962-53.383886S148.018957 58.236967 148.018957 58.236967C99.488152 72.796209 55.810427 126.180095 55.810427 179.563981c0 0-9.706161 407.658768 0 456.189573 48.530806 237.800948 388.246445 383.393365 461.042654 383.393365 67.943128 0 407.658768-145.592417 451.336493-383.393365C977.895735 587.222749 968.189573 179.563981 968.189573 179.563981zM691.563981 436.777251l-198.976303 198.976303C487.734597 635.753555 482.881517 640.606635 473.175355 635.753555c-9.706161 0-14.559242 0-19.412322-4.853081l-101.914692-101.914692c-9.706161-9.706161-9.706161-24.265403 0-33.971564 9.706161-9.706161 24.265403-9.706161 33.971564 0l92.208531 92.208531 184.417062-184.417062c9.706161-9.706161 24.265403-9.706161 33.971564 0C701.270142 407.658768 701.270142 427.07109 691.563981 436.777251z" p-id="5278"></path></svg>