<?xml version="1.0" standalone="no"?><!DOCTYPE svg PUBLIC "-//W3C//DTD SVG 1.1//EN" "http://www.w3.org/Graphics/SVG/1.1/DTD/svg11.dtd"><svg t="1586513186302" class="icon" viewBox="0 0 1082 1024" version="1.1" xmlns="http://www.w3.org/2000/svg" p-id="12524" xmlns:xlink="http://www.w3.org/1999/xlink" width="105.6640625" height="100"><defs><style type="text/css"></style></defs><path d="M616.204 581.783a273.988 273.988 0 0 0-125.29-30.401q-66.916 15.928-98.478 15.928-32.122 0-92.446-15.928C133.338 551.382 0 696.939 0 874.885v19.456c0 74.333 133.33 74.333 296.978 74.333h190.917c38.183 0 74.743-0.151 108.368-1.334a317.852 317.852 0 0 1-55.19-179.668c0-78.771 28.293-150.685 75.13-205.905zM142.683 254.426C142.683 115.718 256.23 0 392.36 0c137.911 0 249.738 113.882 249.822 254.426 0.546 67.674-25.592 132.739-72.544 180.593s-110.795 74.516-177.203 73.985c-137.881-0.091-249.632-113.989-249.677-254.51z m530.409 510.028l-50.312-38.995a11.886 11.886 0 0 1-2.867-15.117l47.695-81.767a11.65 11.65 0 0 1 14.533-5.196l59.36 23.635c12.364-9.223 25.744-17.256 40.27-23.157l9.049-62.622a11.643 11.643 0 0 1 11.741-9.86h95.3a11.643 11.643 0 0 1 11.665 9.92l9.102 62.623a173.835 173.835 0 0 1 40.201 23.157l59.437-23.635a12.038 12.038 0 0 1 14.533 5.203l47.695 81.76a11.893 11.893 0 0 1-2.868 15.124l-50.311 38.995a166.72 166.72 0 0 1 0 46.307l50.236 38.995a11.56 11.56 0 0 1 2.943 15.125l-47.62 81.774a11.643 11.643 0 0 1-14.532 5.196l-59.361-23.627c-12.371 9.215-25.744 17.248-40.27 23.157l-9.101 62.622a11.65 11.65 0 0 1-11.59 9.921h-95.451a11.658 11.658 0 0 1-11.742-9.92l-9.018-62.623a175.018 175.018 0 0 1-40.27-23.157l-59.36 23.627a12.022 12.022 0 0 1-14.533-5.196l-47.733-81.827a11.886 11.886 0 0 1 2.867-15.118l50.236-38.994a183.24 183.24 0 0 1-1.517-23.158 188.224 188.224 0 0 1 1.517-23.157z m177.088-59.55c-45.988 0-83.48 37.098-83.48 82.677s37.492 82.677 83.48 82.677 83.482-37.09 83.482-82.677-37.493-82.677-83.482-82.677z m0 0" p-id="12525"></path></svg>