<?xml version="1.0" standalone="no"?><!DOCTYPE svg PUBLIC "-//W3C//DTD SVG 1.1//EN" "http://www.w3.org/Graphics/SVG/1.1/DTD/svg11.dtd"><svg t="1589774367494" class="icon" viewBox="0 0 1024 1024" version="1.1" xmlns="http://www.w3.org/2000/svg" p-id="3512" xmlns:xlink="http://www.w3.org/1999/xlink" width="100" height="100"><defs><style type="text/css"></style></defs><path d="M882.76862 958.245586c19.362258 0 33.977039 18.803731 33.977039 32.859986a32.580722 32.580722 0 0 1-33.977039 32.859986h-707.467113a32.580722 32.580722 0 0 1-34.070127-32.859986 32.580722 32.580722 0 0 1 34.070127-32.859986zM917.583449 79.776226c51.663717 0 89.178091 38.910691 89.178091 92.343075V778.213824c0 48.498732-37.514375 92.249988-89.178091 92.249988H106.416551c-51.663717 0-89.178091-43.751256-89.178091-92.249988V172.119301c0-53.432385 42.261851-92.343076 89.178091-92.343075z m0 72.88773H106.416551c-9.401866 0-18.803731 9.681129-18.803731 19.455345V778.213824c0 9.681129 9.401866 19.362258 18.803731 19.362258h811.166898c9.401866 0 18.803731-9.681129 18.803731-19.362258V172.119301c0-9.774217-9.401866-19.548433-18.803731-19.548433zM517.678354 260.087252c26.623104 0 48.405645 21.037838 48.405645 46.823152 0 5.119828-0.930878 10.239656-2.606458 14.987132 32.487635 8.191724 61.437933 24.854437 84.244439 47.288591a49.801961 49.801961 0 0 1 49.150347-14.521693 48.033293 48.033293 0 0 1 29.32265 21.78254c6.516144 10.798182 8.191724 23.45812 4.840565 35.559531a46.730065 46.730065 0 0 1-22.527243 28.391773 49.336522 49.336522 0 0 1-15.173308 5.399091 169.978283 169.978283 0 0 1-0.372351 94.018655c5.585267 0.930878 10.798182 2.792633 15.545659 5.492179 11.170533 6.236881 19.176082 16.290361 22.527243 28.391773a45.054485 45.054485 0 0 1-4.840565 35.466443 47.847118 47.847118 0 0 1-41.982588 23.45812 49.336522 49.336522 0 0 1-37.048935-16.7558c-22.806506 22.341067-51.663717 38.724516-84.058264 46.823152 1.861756 5.02674 2.978809 10.425831 2.978809 16.104186a47.660942 47.660942 0 0 1-48.405645 46.730064 47.660942 47.660942 0 0 1-48.405644-46.730064c0-5.585267 0.930878-10.984358 2.885721-16.104186a183.755274 183.755274 0 0 1-83.965176-46.823152 49.336522 49.336522 0 0 1-79.124611-6.70232 45.147572 45.147572 0 0 1-4.840564-35.466443 46.636977 46.636977 0 0 1 22.62033-28.391773 49.057259 49.057259 0 0 1 15.452571-5.585266 170.07137 170.07137 0 0 1-0.279264-93.925568 49.522698 49.522698 0 0 1-15.173307-5.399091 45.985362 45.985362 0 0 1-17.686678-63.951304 49.522698 49.522698 0 0 1 78.472997-7.260847c22.713418-22.434154 51.756805-39.096867 84.244439-47.288591a45.147572 45.147572 0 0 1-2.606458-14.987132c0-25.785314 21.689452-46.823152 48.405644-46.823152z m0 113.93944c-67.488639 0-122.410428 53.060033-122.410428 118.221478 0 65.161445 54.921789 118.221478 122.410428 118.221478 67.395551 0 122.31734-53.060033 122.317341-118.221478 0-65.161445-54.921789-118.221478-122.317341-118.221478z"></path></svg>
