<?xml version="1.0" standalone="no"?><!DOCTYPE svg PUBLIC "-//W3C//DTD SVG 1.1//EN" "http://www.w3.org/Graphics/SVG/1.1/DTD/svg11.dtd"><svg t="1589015864056" class="icon" viewBox="0 0 1024 1024" version="1.1" xmlns="http://www.w3.org/2000/svg" p-id="12009" xmlns:xlink="http://www.w3.org/1999/xlink" width="200" height="200"><defs><style type="text/css"></style></defs><path d="M652.495238 681.447619v-13.561905h42.057143v-33.67619h-43.12381v-44.647619c14.933333-3.2 28.647619-6.552381 42.361905-9.904762l-12.342857-32.609524c-37.028571 11.12381-75.12381 17.980952-113.523809 20.876191l8.07619 31.847619c15.085714-1.371429 27.733333-3.2 41.295238-4.72381v39.161905h-49.371428v33.67619h45.409523c-11.885714 33.980952-30.933333 65.066667-55.619047 91.12381l14.933333 36.87619c17.980952-23.314286 33.066667-48.914286 44.647619-76.038095v139.428571h35.2v-142.019047c7.314286 10.209524 16.457143 22.704762 27.428572 38.4l19.657142-30.019048c-16-16.152381-31.390476-30.780952-47.085714-44.190476z"></path><path d="M849.371429 815.238095V557.561905h-139.733334V815.238095H681.142857v33.980953h194.285714V815.238095h-26.057142z m-35.2 0h-69.942858v-53.790476h69.942858V815.238095z m0-87.161905h-69.942858v-53.485714h69.942858v53.485714z m0-86.704761h-69.942858v-52.266667h69.942858v52.266667zM588.342857 456.228571c-2.133333 8.533333-4.266667 16.304762-6.4 23.314286-2.133333 5.790476-4.87619 11.885714-8.07619 18.133333-2.590476 5.333333-6.095238 10.057143-10.361905 14.019048-4.266667 3.047619-7.771429 7.314286-10.057143 12.038095-1.980952 4.266667-3.504762 8.685714-4.87619 13.257143-1.371429 4.72381-2.895238 9.447619-4.419048 14.019048-1.67619 4.87619-4.266667 9.6-8.076191 14.47619-11.27619 14.171429-20.571429 29.866667-27.733333 46.628572-5.790476 13.866667-10.209524 28.495238-12.952381 43.428571-2.438095 13.714286-3.047619 27.580952-1.980952 41.295238s3.2 26.971429 6.4 39.771429c2.133333 9.6 5.333333 19.657143 9.6 30.019047 4.266667 10.514286 10.514286 21.180952 18.895238 32.152381 8.228571 10.971429 18.895238 21.638095 31.695238 32.152381 12.8 10.361905 28.952381 20.419048 48.152381 30.019048-12.952381 2.742857-27.885714 5.028571-44.952381 7.161905-41.904762 4.419048-83.961905 6.552381-126.171429 6.4-13.866667 0-30.019048-0.457143-48.609523-1.676191-19.047619-1.066667-37.942857-2.438095-56.990477-3.961905-19.504762-1.67619-38.857143-3.504762-57.752381-5.638095-19.047619-2.133333-36.419048-4.419048-52.114285-6.857143-13.561905-1.980952-26.819048-4.571429-40.228572-7.619047-10.971429-2.742857-17.828571-5.028571-20.419047-7.161905-4.72381-4.266667-8.533333-16.152381-11.276191-35.809524-2.742857-19.504762-1.828571-45.104762 2.438095-76.647619 2.742857-17.67619 9.752381-31.238095 21.333334-40.533333 11.428571-9.295238 24.990476-16.761905 40.533333-22.095238 15.542857-5.333333 31.695238-10.361905 48.609524-14.780953 15.695238-4.114286 30.780952-10.361905 44.647619-18.895238 10.209524-6.4 17.980952-12.342857 23.314286-18.133333 5.333333-5.638095 9.142857-11.27619 11.27619-17.219048 2.133333-5.790476 3.2-12.038095 3.2-18.438095 0-6.4-0.304762-13.409524-0.914286-20.87619-1.066667-11.27619-4.87619-20.114286-11.580952-26.514286-6.857143-6.552381-14.019048-13.104762-21.180952-19.352381-4.87619-3.809524-8.685714-8.838095-11.276191-14.476191-3.047619-5.942857-5.790476-12.190476-8.07619-18.438095-2.895238-7.619048-5.028571-15.390476-6.4-23.314286-3.657143-1.066667-7.314286-2.742857-10.514286-4.87619-3.352381-2.895238-6.247619-6.095238-8.838095-9.6-3.961905-5.942857-7.009524-12.495238-8.838095-19.352381-2.590476-7.161905-3.504762-14.933333-2.742858-22.552381 0.914286-6.857143 2.285714-12.8 4.419048-17.67619 2.133333-5.942857 5.028571-10.971429 8.838095-15.238096 0-18.133333 1.066667-36.419048 3.2-54.552381 2.133333-15.542857 5.485714-32.152381 10.057143-49.828571 4.571429-17.67619 11.885714-33.52381 22.095238-47.390476 9.6-13.409524 19.961905-24.380952 30.933334-32.914286 10.971429-8.533333 22.4-15.238095 34.133333-20.114286 11.733333-4.87619 23.619048-8.228571 35.352381-10.057142 11.733333-1.828571 23.009524-2.742857 33.67619-2.742858 14.019048 0 27.27619 1.52381 40.228572 4.876191 12.8 3.2 24.838095 7.466667 35.657143 12.8 11.12381 5.333333 20.72381 11.428571 29.257142 18.133333s15.542857 13.561905 20.876191 20.419048c12.342857 15.542857 21.180952 32.609524 26.971429 51.352381 5.638095 18.742857 9.752381 36.419048 12.342857 53.028571 2.742857 19.352381 3.809524 38.552381 3.2 57.752381 3.2 2.742857 5.942857 5.942857 8.07619 9.6 2.133333 3.2 3.809524 7.466667 4.876191 12.952381 1.066667 6.704762 1.066667 13.409524 0 20.114286-1.066667 10.209524-3.2 18.133333-6.4 24.07619-2.590476 5.180952-6.247619 9.752381-10.514286 13.561905-3.809524 3.809524-8.380952 6.552381-13.561905 8.380952z"></path></svg>
