<?xml version="1.0" standalone="no"?><!DOCTYPE svg PUBLIC "-//W3C//DTD SVG 1.1//EN" "http://www.w3.org/Graphics/SVG/1.1/DTD/svg11.dtd"><svg t="1589287995264" class="icon" viewBox="0 0 1024 1024" version="1.1" xmlns="http://www.w3.org/2000/svg" p-id="991" xmlns:xlink="http://www.w3.org/1999/xlink" width="200" height="200"><defs></defs><path d="M853.333333 0h-682.666666C75.093333 0 0 75.093333 0 170.666667v682.666666C0 948.906667 75.093333 1024 170.666667 1024h682.666666c95.573333 0 170.666667-75.093333 170.666667-170.666667v-682.666666C1024 75.093333 948.906667 0 853.333333 0zM955.733333 853.333333c0 54.613333-47.786667 102.4-102.4 102.4h-682.666666c-54.613333 0-102.4-47.786667-102.4-102.4v-682.666666C68.266667 116.053333 116.053333 68.266667 170.666667 68.266667h682.666666c54.613333 0 102.4 47.786667 102.4 102.4v682.666666z" p-id="992"></path><path d="M716.8 375.466667c0-116.053333-88.746667-204.8-204.8-204.8s-204.8 88.746667-204.8 204.8c0 61.44 27.306667 116.053333 68.266667 157.013333-122.88 40.96-204.8 157.013333-204.8 286.72 0 20.48 13.653333 34.133333 34.133333 34.133333s34.133333-13.653333 34.133333-34.133333c0-129.706667 109.226667-238.933333 238.933334-238.933333h34.133333c116.053333 0 204.8-88.746667 204.8-204.8z m-204.8 136.533333c-75.093333 0-136.533333-61.44-136.533333-136.533333s61.44-136.533333 136.533333-136.533334 136.533333 61.44 136.533333 136.533334-61.44 136.533333-136.533333 136.533333zM785.066667 614.4h-204.8c-20.48 0-34.133333 13.653333-34.133334 34.133333s13.653333 34.133333 34.133334 34.133334h204.8c20.48 0 34.133333-13.653333 34.133333-34.133334s-13.653333-34.133333-34.133333-34.133333zM785.066667 750.933333h-204.8c-20.48 0-34.133333 13.653333-34.133334 34.133334s13.653333 34.133333 34.133334 34.133333h204.8c20.48 0 34.133333-13.653333 34.133333-34.133333s-13.653333-34.133333-34.133333-34.133334z" p-id="993"></path></svg>
